<?xml version="1.0" encoding="UTF-8"?>
<!DOCTYPE svg PUBLIC "-//W3C//DTD SVG 1.1//EN" "http://www.w3.org/Graphics/SVG/1.1/DTD/svg11.dtd">
<!-- Creator: CorelDRAW 2021 (64-Bit) -->
<svg xmlns="http://www.w3.org/2000/svg" xml:space="preserve" width="2.55555in" height="2.55555in" version="1.1" style="shape-rendering:geometricPrecision; text-rendering:geometricPrecision; image-rendering:optimizeQuality; fill-rule:evenodd; clip-rule:evenodd"
viewBox="0 0 2555.55 2555.55"
 xmlns:xlink="http://www.w3.org/1999/xlink"
 xmlns:xodm="http://www.corel.com/coreldraw/odm/2003">
 <defs>
  <style type="text/css">
   <![CDATA[
    .fil0 {fill:#1CAEB8}
    .fil1 {fill:#163453}
    .fil2 {fill:#163453;fill-rule:nonzero}
   ]]>
  </style>
 </defs>
 <g id="Layer_x0020_1">
  <metadata id="CorelCorpID_0Corel-Layer"/>
  <g id="_2295848588768">
   <g>
    <path class="fil0" d="M1275.09 355.99c83.87,0 163.8,16.85 236.61,47.33 -48.42,7.11 -93.4,24.79 -132.54,50.61 -33.64,-6.76 -68.44,-10.31 -104.07,-10.31 -288.8,0 -523.18,232.89 -525.67,521.1 -29.35,-2.88 -58.56,-4.3 -87.57,-3.93 4.59,-334.79 277.36,-604.79 613.24,-604.79z"/>
    <g>
     <path class="fil0" d="M699.43 1180.62c362.43,13.89 750.74,282.41 1075.55,144.29 -31.95,44.81 -69.79,85.13 -112.37,119.86 -286.87,46.41 -612.19,-146.26 -921.34,-173.81 -16.28,-28.75 -30.31,-58.93 -41.84,-90.33z"/>
     <path class="fil0" d="M770.69 1317.83c274.61,33.3 560.54,186.04 819.86,177.58 -54.7,32.85 -114.93,57.41 -178.97,71.95 -179.8,-33.35 -367.62,-110.26 -552.23,-147.43 -33.16,-30.63 -62.9,-64.88 -88.66,-102.11z"/>
     <path class="fil0" d="M938.36 1481.78c116.47,29.43 233.58,69.87 348.53,100.64 -3.85,0.07 -7.71,0.14 -11.58,0.14 -124.46,0 -240.26,-37.08 -336.95,-100.78z"/>
    </g>
    <path class="fil1" d="M667.14 1048.63c213.76,-1.12 437.54,94.01 652.74,147.94 0,-148.8 0,-297.59 0,-446.38 -0.65,-7.18 -0.98,-14.46 -0.98,-21.81 0,-133.08 107.88,-240.96 240.96,-240.96 133.08,0 240.96,107.88 240.96,240.96 0,30.39 -5.63,59.44 -15.89,86.22 63.69,52.22 104.32,131.51 104.32,220.3 0,118.63 -72.54,220.32 -175.67,263.13 -59.91,24.86 -131.48,25.09 -195.61,20.49 -267.07,-19.16 -557.79,-176.78 -832.87,-182.13 -8.04,-28.46 -14.08,-57.77 -17.96,-87.75zm740.37 167.35c49.28,9.3 97.96,15.35 145.82,16.48 33.39,0.78 79.65,0.26 110.83,-9.63 79.7,-25.28 137.47,-99.86 137.47,-187.94 0,-108.88 -88.27,-197.14 -197.15,-197.14 -106.23,0 -192.83,84.03 -196.97,189.24 0,62.98 0,125.98 0,188.99zm300.14 -446.59c-31.99,-12.44 -66.78,-19.27 -103.17,-19.27 -76.43,0 -145.83,30.11 -196.97,79.12l0 -83.46 -0.17 -33.29c-0.06,-8.98 2.61,-17.65 4.99,-26.06 18.24,-64.3 77.39,-111.39 147.53,-111.39 84.69,0 153.34,68.65 153.34,153.33 0,14.21 -1.94,27.96 -5.56,41.02z"/>
    <path class="fil0" d="M1098.87 684.57c24.2,0 43.81,19.61 43.81,43.81l0 306.67 0 0c-0.01,24.2 -19.61,43.81 -43.81,43.81 -24.19,0 -43.81,-19.61 -43.81,-43.81l0 -0 0 -306.67c0,-24.2 19.62,-43.81 43.81,-43.81z"/>
    <path class="fil0" d="M1231.28 618.85c24.19,0 43.81,19.61 43.81,43.81l0 438.11c0,24.2 -19.62,43.81 -43.81,43.81 -24.2,0 -43.81,-19.62 -43.81,-43.81l0 -438.11c0,-24.2 19.61,-43.81 43.81,-43.81z"/>
    <path class="fil0" d="M1010.27 925.53l-35.31 0 -0.81 0 0 -0.01c-23.83,-0.43 -43.01,-19.88 -43.01,-43.8 0,-23.93 19.18,-43.37 43.01,-43.8l0 -0.01 0.81 0 35.31 0 0 87.62z"/>
    <path class="fil0" d="M1275.31 487.51c19.44,0 38.59,1.19 57.43,3.42 -25.48,24.38 -47.03,52.83 -63.63,84.28 -214.78,3.32 -387.86,178.43 -387.86,393.99 0,6.27 0.16,12.5 0.45,18.7 -29.44,-6.4 -58.8,-11.85 -88.05,-16.07 -0,-0.88 -0.03,-1.75 -0.03,-2.63 0,-266.03 215.66,-481.7 481.69,-481.7z"/>
   </g>
   <path class="fil2" d="M572.2 1714.38c0,-47.45 -29.37,-64.56 -72.62,-64.56l-100.37 0 0 236.25 103.93 0c40.67,0 78.75,-15.49 78.75,-67.45 0,-34.85 -24.85,-54.55 -48.09,-55.83l0 -0.33c23.24,-0.96 38.41,-23.23 38.41,-48.08l0 0zm-72.3 131.68l-55.51 0 0 -60.03 54.55 0c23.23,0 37.76,9.04 37.76,30.01 0,20.98 -14.53,30.02 -36.8,30.02zm-55.51 -156.21l51 0c19.36,0 31.63,8.39 31.63,26.47 0,18.39 -8.71,29.37 -31.95,29.37l-50.67 0 0 -55.84zm267.57 200.03c62.28,0 102.89,-46.03 102.89,-102.89 0,-56.59 -40.62,-102.89 -102.89,-102.89 -62.01,0 -102.63,46.31 -102.63,102.89 0,56.86 40.62,102.89 102.63,102.89zm0 -170.31c36.01,0 64.98,31.68 64.98,67.42 0,36.01 -28.97,67.69 -64.98,67.69 -35.74,0 -64.99,-31.68 -64.99,-67.69 0,-35.74 29.25,-67.42 64.99,-67.42zm214.72 166.52c64.71,0 99.37,-38.72 99.37,-99.1 0,-60.65 -35.74,-99.1 -99.37,-99.1l-78.26 0 0 198.2 78.26 0zm-40.35 -164.09l40.35 0c27.62,0 61.19,10.02 61.19,65.26 0,54.97 -33.31,64.72 -61.19,64.72l-40.35 0 0 -129.97zm285.92 -34.11l-50.36 84.2 -49.82 -84.2 -44.13 0 75.01 123.2 0 75 37.91 0 0 -75 75.54 -123.2 -44.14 0zm199.02 63.63l35.47 -14.35c-14.08,-28.43 -45.49,-52.53 -89.63,-52.53 -56.59,0 -102.62,44.95 -102.62,102.62 0,58.22 46.03,102.63 102.62,102.63 42.52,0 75,-21.39 89.63,-52.26l-35.47 -14.35c-10.02,17.32 -27.62,31.41 -54.15,31.41 -35.74,0 -64.71,-30.05 -64.71,-67.42 0,-36.82 28.97,-67.42 64.71,-67.42 24.91,0 44.13,13.81 54.15,31.68zm139.99 71.48l46.03 63.09 45.22 0 -49.55 -66.61c24.91,-6.77 41.16,-33.57 41.16,-63.36 0,-40.07 -27.89,-68.24 -68.24,-68.24l-89.89 0 0 198.2 37.64 0 0 -63.09 37.64 0zm-37.64 -101.53l43.32 0c27.89,0 39.54,15.16 39.54,34.39 0,16.79 -7.58,34.11 -39.54,34.11l-43.32 0 0 -68.5zm175.46 164.62l15.17 -31.13 93.41 0 15.43 31.13 41.16 0 -101.27 -198.2 -3.78 0 -101.27 198.2 41.15 0zm62.01 -124.01l28.16 59.83 -56.59 0 28.43 -59.83zm272.12 -40.61l0 -33.58 -145.67 0 0 198.2 37.91 0 0 -77.98 95.58 0 0 -33.58 -95.58 0 0 -53.07 107.77 0zm168.69 -33.58l-151.36 0 0 33.58 56.86 0 0 164.62 37.91 0 0 -164.62 56.59 0 0 -33.58z"/>
   <path class="fil2" d="M2317.76 2174.05l20.7 -30.5c9.98,6.91 20.29,12.85 30.91,17.84 10.62,5 21.74,7.49 33.36,7.49 6.17,0 11.62,-0.77 16.34,-2.31 4.72,-1.54 8.72,-3.54 11.98,-5.99 3.27,-2.45 5.72,-5.26 7.35,-8.44 1.63,-3.18 2.45,-6.31 2.45,-9.4 0,-3.99 -1.22,-7.4 -3.68,-10.21 -2.45,-2.81 -5.72,-5.13 -9.8,-6.94 -4.09,-1.81 -8.89,-3.35 -14.43,-4.63 -5.54,-1.27 -11.3,-2.45 -17.3,-3.54 -3.99,-0.73 -8.62,-1.59 -13.89,-2.59 -5.27,-1 -10.71,-2.36 -16.34,-4.09 -5.63,-1.72 -11.17,-3.99 -16.61,-6.81 -5.45,-2.81 -10.35,-6.35 -14.71,-10.62 -4.36,-4.26 -7.85,-9.35 -10.48,-15.25 -2.63,-5.9 -3.95,-12.85 -3.95,-20.83 0,-11.62 2.36,-21.29 7.08,-29.01 4.72,-7.71 10.76,-13.8 18.11,-18.24 7.35,-4.45 15.52,-7.58 24.51,-9.4 8.99,-1.81 17.66,-2.72 26.01,-2.72 8.35,0 15.8,0.54 22.33,1.63 6.54,1.09 12.61,2.68 18.25,4.77 5.63,2.09 11.12,4.72 16.48,7.9 5.35,3.18 11.12,6.94 17.29,11.3l-21.24 29.96c-9.44,-6.54 -18.52,-11.53 -27.24,-14.98 -8.71,-3.44 -17.88,-5.17 -27.5,-5.17 -3.27,0 -6.99,0.41 -11.17,1.23 -4.18,0.81 -8.13,2.13 -11.85,3.94 -3.72,1.82 -6.81,4.13 -9.26,6.94 -2.45,2.81 -3.68,6.22 -3.68,10.22 0,3.99 1.45,7.35 4.35,10.07 2.91,2.72 6.63,5 11.17,6.81 4.54,1.82 9.54,3.36 14.98,4.63 5.45,1.27 10.71,2.54 15.8,3.81 3.81,0.91 8.31,1.81 13.48,2.72 5.18,0.91 10.53,2.18 16.07,3.81 5.54,1.63 11.03,3.81 16.48,6.54 5.45,2.72 10.31,6.22 14.57,10.48 4.26,4.27 7.71,9.53 10.35,15.8 2.63,6.26 3.95,13.85 3.95,22.74 0,10.35 -1.82,19.33 -5.45,26.96 -3.63,7.62 -8.8,13.94 -15.52,18.93 -6.72,5 -14.7,8.76 -23.96,11.3 -9.26,2.54 -19.52,3.81 -30.78,3.81 -10.35,0 -19.47,-0.77 -27.37,-2.31 -7.9,-1.54 -15.12,-3.63 -21.66,-6.26 -6.53,-2.63 -12.71,-5.76 -18.52,-9.39 -5.81,-3.64 -11.8,-7.63 -17.98,-11.99zm-186.12 0l20.7 -30.5c9.98,6.91 20.29,12.85 30.91,17.84 10.62,5 21.74,7.49 33.36,7.49 6.18,0 11.62,-0.77 16.34,-2.31 4.72,-1.54 8.72,-3.54 11.98,-5.99 3.27,-2.45 5.72,-5.26 7.35,-8.44 1.63,-3.18 2.45,-6.31 2.45,-9.4 0,-3.99 -1.22,-7.4 -3.68,-10.21 -2.45,-2.81 -5.72,-5.13 -9.8,-6.94 -4.09,-1.81 -8.9,-3.35 -14.44,-4.63 -5.54,-1.27 -11.3,-2.45 -17.3,-3.54 -3.99,-0.73 -8.62,-1.59 -13.89,-2.59 -5.27,-1 -10.71,-2.36 -16.34,-4.09 -5.63,-1.72 -11.17,-3.99 -16.61,-6.81 -5.45,-2.81 -10.35,-6.35 -14.71,-10.62 -4.36,-4.26 -7.85,-9.35 -10.48,-15.25 -2.63,-5.9 -3.95,-12.85 -3.95,-20.83 0,-11.62 2.36,-21.29 7.08,-29.01 4.72,-7.71 10.76,-13.8 18.11,-18.24 7.35,-4.45 15.52,-7.58 24.51,-9.4 8.99,-1.81 17.66,-2.72 26.01,-2.72 8.35,0 15.79,0.54 22.33,1.63 6.54,1.09 12.62,2.68 18.25,4.77 5.63,2.09 11.12,4.72 16.48,7.9 5.35,3.18 11.12,6.94 17.29,11.3l-21.24 29.96c-9.44,-6.54 -18.52,-11.53 -27.23,-14.98 -8.71,-3.44 -17.88,-5.17 -27.51,-5.17 -3.27,0 -6.99,0.41 -11.17,1.23 -4.17,0.81 -8.13,2.13 -11.85,3.94 -3.72,1.82 -6.81,4.13 -9.26,6.94 -2.46,2.81 -3.68,6.22 -3.68,10.22 0,3.99 1.45,7.35 4.35,10.07 2.91,2.72 6.63,5 11.17,6.81 4.54,1.82 9.54,3.36 14.98,4.63 5.44,1.27 10.71,2.54 15.8,3.81 3.81,0.91 8.3,1.81 13.48,2.72 5.18,0.91 10.53,2.18 16.07,3.81 5.54,1.63 11.03,3.81 16.48,6.54 5.44,2.72 10.3,6.22 14.57,10.48 4.27,4.27 7.71,9.53 10.35,15.8 2.63,6.26 3.95,13.85 3.95,22.74 0,10.35 -1.81,19.33 -5.44,26.96 -3.63,7.62 -8.81,13.94 -15.53,18.93 -6.71,5 -14.7,8.76 -23.96,11.3 -9.26,2.54 -19.52,3.81 -30.78,3.81 -10.35,0 -19.47,-0.77 -27.37,-2.31 -7.9,-1.54 -15.12,-3.63 -21.65,-6.26 -6.54,-2.63 -12.71,-5.76 -18.52,-9.39 -5.81,-3.64 -11.8,-7.63 -17.97,-11.99zm-140.92 -139.44l0 49.84 96.41 0 0 34.59 -96.41 0 0 46.84 108.67 0 0 34.31 -146.79 0 0 -199.35 146.79 0 0 33.77 -108.67 0zm-86.72 165.58l-131 -118.46 0 118.46 -38.13 0 0 -199.08 4.08 0 131 120.38 0 -120.38 38.13 0 0 199.08 -4.08 0zm-196.2 -165.58l-56.92 0 0 165.58 -38.13 0 0 -165.58 -57.19 0 0 -33.77 152.24 0 0 33.77zm-182.04 165.58l-38.13 0 0 -199.08 38.13 0 0 199.08zm-183.95 -165.58l0 49.3 96.14 0 0 35.13 -96.14 0 0 81.15 -38.13 0 0 -199.35 146.52 0 0 33.77 -108.4 0zm-274.63 10.62c-0.54,5.26 0.36,10.67 2.72,16.2 2.36,5.54 5.27,10.12 8.72,13.75 2.54,-1.45 5.22,-3.18 8.03,-5.17 2.81,-2 5.22,-4 7.22,-5.99 5.63,-5.81 8.44,-12.62 8.44,-20.43 0,-4.72 -1.63,-8.49 -4.9,-11.3 -3.27,-2.81 -7.04,-4.31 -11.3,-4.49 -4.27,-0.19 -8.31,1.09 -12.12,3.81 -3.81,2.72 -6.08,7.26 -6.81,13.62zm0.82 72.17c-4.91,2.72 -9.17,5.63 -12.8,8.71 -0.73,0.54 -1.68,1.45 -2.86,2.72 -1.18,1.28 -2.32,2.91 -3.41,4.91 -1.09,2 -1.95,4.4 -2.59,7.21 -0.63,2.82 -0.68,6.04 -0.13,9.67 0.54,5.09 2.95,9.44 7.21,13.07 4.27,3.63 9.39,5.63 15.39,5.99 4.36,0.19 8.3,-0.27 11.85,-1.36 3.54,-1.09 6.72,-2.45 9.53,-4.08 2.81,-1.63 5.31,-3.36 7.49,-5.18 2.18,-1.81 4.09,-3.54 5.72,-5.17l-35.4 -36.49zm83.6 86.6l-25.59 -26.15c-6.18,5.26 -12.08,9.53 -17.7,12.8 -5.63,3.27 -10.85,5.86 -15.66,7.76 -4.81,1.91 -9.12,3.18 -12.93,3.81 -3.81,0.64 -6.9,1.04 -9.26,1.23 -7.81,0.36 -15.17,-0.55 -22.06,-2.72 -6.9,-2.18 -13.07,-5.45 -18.52,-9.81 -5.44,-4.35 -9.94,-9.58 -13.48,-15.66 -3.54,-6.08 -5.77,-12.85 -6.67,-20.29 -1.27,-10.89 0.23,-20.43 4.49,-28.59 4.27,-8.17 10.48,-15.7 18.66,-22.61 2,-1.63 4.58,-3.58 7.76,-5.85 3.18,-2.27 5.85,-4.13 8.04,-5.58 -6.35,-7.63 -10.94,-15.61 -13.75,-23.96 -2.82,-8.35 -3.59,-16.89 -2.32,-25.6 0.91,-7.63 3.31,-14.52 7.22,-20.7 3.9,-6.17 8.94,-11.35 15.11,-15.52 6.35,-4.18 13.39,-6.94 21.1,-8.3 7.72,-1.37 15.3,-1.05 22.74,0.95 7.44,2 14.16,5.54 20.15,10.62 5.99,5.08 10.53,11.07 13.61,17.98 3.27,6.9 4.81,14.12 4.63,21.65 -0.18,7.54 -2,14.84 -5.45,21.92 -2.91,5.81 -7.04,10.94 -12.39,15.39 -5.36,4.45 -11.4,8.67 -18.11,12.66l23.97 24.79c6.54,-9.26 11.39,-16.7 14.57,-22.33 3.18,-5.63 4.77,-8.53 4.77,-8.72l32.95 16.07c-0.19,0.36 -2.13,3.91 -5.86,10.62 -3.72,6.72 -9.4,15.43 -17.02,26.15 -0.73,0.91 -1.36,1.72 -1.91,2.45 -0.54,0.73 -1.09,1.54 -1.63,2.45l29.15 31.04 -28.6 22.06zm-378.39 -68.36l56.92 0 -28.32 -60.19 -28.59 60.19zm-75.17 64.54l101.85 -199.08 3.81 0 101.86 199.08 -41.4 0 -15.52 -31.32 -93.96 0 -15.25 31.32 -41.4 0zm-97.07 3.54c-12.89,0 -24.6,-2 -35.13,-5.99 -10.53,-4 -19.52,-9.62 -26.96,-16.89 -7.44,-7.26 -13.2,-16.07 -17.29,-26.42 -4.09,-10.35 -6.13,-21.88 -6.13,-34.59l0 -118.74 38.13 0 0 118.56c0,9.94 1.63,18.2 4.9,24.74 3.27,6.54 7.31,11.67 12.12,15.48 4.81,3.81 9.99,6.44 15.52,7.9 5.54,1.45 10.48,2.18 14.84,2.18 4.36,0 9.31,-0.73 14.84,-2.18 5.54,-1.45 10.71,-4.09 15.52,-7.9 4.81,-3.81 8.85,-8.94 12.12,-15.48 3.27,-6.54 4.91,-14.8 4.91,-24.74l0 -118.56 38.13 0 0 118.74c0,12.71 -2,24.24 -5.99,34.59 -4,10.35 -9.72,19.15 -17.16,26.42 -7.44,7.26 -16.43,12.89 -26.96,16.89 -10.53,3.99 -22.33,5.99 -35.41,5.99zm-283.63 -104.85c0,8.72 1.68,16.98 5.04,24.78 3.36,7.81 7.85,14.66 13.57,20.56 5.72,5.9 12.44,10.57 20.11,14.03 7.71,3.44 15.89,5.17 24.6,5.17 8.72,0 16.89,-1.73 24.6,-5.17 7.67,-3.45 14.39,-8.13 20.11,-14.03 5.72,-5.9 10.21,-12.76 13.57,-20.56 3.35,-7.8 5.04,-16.07 5.04,-24.78 0,-8.71 -1.68,-17.02 -5.04,-24.92 -3.36,-7.89 -7.86,-14.75 -13.57,-20.56 -5.72,-5.81 -12.43,-10.44 -20.11,-13.89 -7.72,-3.45 -15.89,-5.17 -24.6,-5.17 -8.71,0 -16.89,1.72 -24.6,5.17 -7.67,3.45 -14.39,8.08 -20.11,13.89 -5.72,5.81 -10.21,12.67 -13.57,20.56 -3.36,7.9 -5.04,16.21 -5.04,24.92zm168.85 66.45l0 35.13 -99.13 0c-18.52,0 -34.54,-2.67 -48.06,-8.03 -13.53,-5.35 -24.74,-12.62 -33.64,-21.79 -8.89,-9.17 -15.48,-19.93 -19.74,-32.28 -4.27,-12.35 -6.4,-25.51 -6.4,-39.49 0,-13.98 2.68,-27.15 8.04,-39.49 5.36,-12.35 12.62,-23.11 21.79,-32.28 9.17,-9.17 19.88,-16.43 32.14,-21.79 12.25,-5.35 25.37,-8.03 39.35,-8.03 13.98,0 27.14,2.68 39.48,8.03 12.35,5.36 23.11,12.62 32.28,21.79 9.17,9.17 16.43,19.93 21.79,32.28 5.36,12.34 8.04,25.51 8.04,39.49 0,5.99 -0.68,12.17 -2.05,18.52 -1.36,6.35 -3.58,12.52 -6.67,18.52 -3.09,5.99 -7.04,11.53 -11.85,16.61 -4.81,5.08 -10.76,9.35 -17.84,12.8l42.48 0zm-338.91 -29.69l56.92 0 -28.33 -60.19 -28.59 60.19zm-75.17 64.54l101.85 -199.08 3.81 0 101.86 199.08 -41.39 0 -15.52 -31.32 -93.96 0 -15.25 31.32 -41.39 0z"/>
  </g>
 </g>
</svg>
